<svg width="156.615576171875px" height="122px" xmlns="http://www.w3.org/2000/svg" viewBox="171.6922119140625 14 156.615576171875 122" style="background:#f2eddb" preserveAspectRatio="xMidYMid"><defs><filter id="editing-vintage" x="-100%" y="-100%" width="300%" height="300%"><feConvolveMatrix in="SourceGraphic" result="extrude" order="9,9" divisor="1" kernelMatrix="1,0,0,0,0,0,0,0,0,0,1,0,0,0,0,0,0,0,0,0,1,0,0,0,0,0,0,0,0,0,1,0,0,0,0,0,0,0,0,0,1,0,0,0,0,0,0,0,0,0,1,0,0,0,0,0,0,0,0,0,1,0,0,0,0,0,0,0,0,0,1,0,0,0,0,0,0,0,0,0,1"> </feConvolveMatrix><feFlood flood-color="#900" result="flood-extrude"></feFlood><feComposite operator="in" in="flood-extrude" in2="extrude" result="extrude-color"></feComposite><feOffset dx="5" dy="5" in="extrude-color" result="extrude-offset"></feOffset><feColorMatrix in="SourceGraphic" result="stroke" type="matrix" values="0 0 0 0 0 0 0 0 0 0 0 0 0 0 0 0 1 0 0 0 "></feColorMatrix><feColorMatrix in="SourceGraphic" result="fill" type="matrix" values="0 0 0 0 0 0 0 0 0 0 0 0 0 0 0 1 0 0 1 0 "></feColorMatrix><feConvolveMatrix in="stroke" result="inner-shadow" order="5,5" divisor="1" kernelMatrix="1 0 0 0 0 0 1 0 0 0 0 0 1 0 0 0 0 0 1 0 0 0 0 0 1 "></feConvolveMatrix><feOffset dx="1" dy="1" in="inner-shadow" result="offset"></feOffset><feComposite operator="in" in="offset" in2="SourceAlpha" result="comp"></feComposite><feFlood flood-color="#000" result="flood3"></feFlood><feComposite operator="in" in="flood3" in2="comp" result="comp2"></feComposite><feColorMatrix in="comp2" result="comp3" type="matrix" values="1 0 0 0 0 0 1 0 0 0 0 0 1 0 0 0 0 0 0.5 0 "></feColorMatrix><feFlood flood-color="#f00" result="flood1"></feFlood><feComposite operator="in" in="flood1" in2="fill" result="fill2"></feComposite><feFlood flood-color="#fff" result="flood2"></feFlood><feComposite operator="in" in="flood2" in2="stroke" result="stroke2"></feComposite><feMerge result="obj"><feMergeNode in="extrude-offset"></feMergeNode><feMergeNode in="fill2"></feMergeNode><feMergeNode in="comp3"></feMergeNode></feMerge><feConvolveMatrix in="SourceAlpha" result="shadow" order="9,9" divisor="1" kernelMatrix="1,0,0,0,0,0,0,0,0,0,1,0,0,0,0,0,0,0,0,0,1,0,0,0,0,0,0,0,0,0,1,0,0,0,0,0,0,0,0,0,1,0,0,0,0,0,0,0,0,0,1,0,0,0,0,0,0,0,0,0,1,0,0,0,0,0,0,0,0,0,1,0,0,0,0,0,0,0,0,0,1"></feConvolveMatrix><feOffset dx="15" dy="15" in="shadow" result="shadow-offset"></feOffset><feFlood flood-color="#444" result="flood-shadow"></feFlood><feComposite operator="in" in="flood-shadow" in2="shadow-offset" result="shadow-color"></feComposite><feMerge><feMergeNode in="shadow-color"></feMergeNode><feMergeNode in="obj"></feMergeNode></feMerge></filter></defs><g transform="translate(-9,-9)"><g filter="url(#editing-vintage)"><g transform="translate(202.43607139587402, 96.76000022888184)"><path d="M29.18 1.28L29.18 1.28L29.18 1.28Q20.99 1.28 20.22-10.37L20.22-10.37L9.22-10.37L9.22-10.37Q7.94-7.42 7.04-4.86L7.04-4.86L5.38 0L-3.58 0L16.58-42.24L30.34-42.24L33.02-11.14L33.02-11.14Q33.66-4.42 36.22-2.43L36.22-2.43L36.22-2.43Q34.37 1.28 29.18 1.28ZM14.72-23.17L11.20-15.04L20.03-15.04L19.26-31.49L19.26-33.22L14.72-23.17ZM40.96-6.40L40.96-6.40L40.96-6.40Q40.96-8.13 41.86-12.48L41.86-12.48L45.25-29.76L41.47-29.76L41.73-31.68L41.73-31.68Q49.41-33.98 56.83-39.62L56.83-39.62L59.90-39.62L58.37-32.64L63.36-32.64L62.78-29.76L57.86-29.76L54.59-12.48L54.59-12.48Q53.76-8.51 53.76-7.17L53.76-7.17L53.76-7.17Q53.76-4.10 56.45-3.46L56.45-3.46L56.45-3.46Q55.81-1.28 53.50 0L53.50 0L53.50 0Q51.20 1.28 47.94 1.28L47.94 1.28L47.94 1.28Q44.67 1.28 42.82-0.77L42.82-0.77L42.82-0.77Q40.96-2.82 40.96-6.40ZM83.07-17.98L83.07-17.98L83.07-17.98Q85.38-22.08 85.38-26.24L85.38-26.24L85.38-26.24Q85.38-28.99 83.39-28.99L83.39-28.99L83.39-28.99Q81.86-28.99 80.26-26.37L80.26-26.37L80.26-26.37Q78.59-23.74 78.08-20.35L78.08-20.35L74.75 0L61.50 1.28L68.03-32.64L78.59-33.92L77.44-27.46L77.44-27.46Q80.58-33.92 87.62-33.92L87.62-33.92L87.62-33.92Q91.33-33.92 93.34-32L93.34-32L93.34-32Q95.36-30.08 95.36-26.14L95.36-26.14L95.36-26.14Q95.36-22.21 92.77-19.71L92.77-19.71L92.77-19.71Q90.18-17.22 85.76-17.22L85.76-17.22L85.76-17.22Q83.84-17.22 83.07-17.98Z" fill="#f00" stroke="#0f0" stroke-width="1.8"></path></g></g><g><g transform="translate(202.43675422668457, 96.76000022888184)"><path d="M29.18 1.28L29.18 1.28L29.18 1.28Q20.99 1.28 20.22-10.37L20.22-10.37L9.22-10.37L9.22-10.37Q7.94-7.42 7.04-4.86L7.04-4.86L5.38 0L-3.58 0L16.58-42.24L30.34-42.24L33.02-11.14L33.02-11.14Q33.66-4.42 36.22-2.43L36.22-2.43L36.22-2.43Q34.37 1.28 29.18 1.28ZM14.72-23.17L11.20-15.04L20.03-15.04L19.26-31.49L19.26-33.22L14.72-23.17ZM40.96-6.40L40.96-6.40L40.96-6.40Q40.96-8.13 41.86-12.48L41.86-12.48L45.25-29.76L41.47-29.76L41.73-31.68L41.73-31.68Q49.41-33.98 56.83-39.62L56.83-39.62L59.90-39.62L58.37-32.64L63.36-32.64L62.78-29.76L57.86-29.76L54.59-12.48L54.59-12.48Q53.76-8.51 53.76-7.17L53.76-7.17L53.76-7.17Q53.76-4.10 56.45-3.46L56.45-3.46L56.45-3.46Q55.81-1.28 53.50 0L53.50 0L53.50 0Q51.20 1.28 47.94 1.28L47.94 1.28L47.94 1.28Q44.67 1.28 42.82-0.77L42.82-0.77L42.82-0.77Q40.96-2.82 40.96-6.40ZM83.07-17.98L83.07-17.98L83.07-17.98Q85.38-22.08 85.38-26.24L85.38-26.24L85.38-26.24Q85.38-28.99 83.39-28.99L83.39-28.99L83.39-28.99Q81.86-28.99 80.26-26.37L80.26-26.37L80.26-26.37Q78.59-23.74 78.08-20.35L78.08-20.35L74.75 0L61.50 1.28L68.03-32.64L78.59-33.92L77.44-27.46L77.44-27.46Q80.58-33.92 87.62-33.92L87.62-33.92L87.62-33.92Q91.33-33.92 93.34-32L93.34-32L93.34-32Q95.36-30.08 95.36-26.14L95.36-26.14L95.36-26.14Q95.36-22.21 92.77-19.71L92.77-19.71L92.77-19.71Q90.18-17.22 85.76-17.22L85.76-17.22L85.76-17.22Q83.84-17.22 83.07-17.98Z" fill="none" stroke="#fff" stroke-width="2.1"></path></g></g></g><style>text {
  font-size: 64px;
  font-family: Arial Black;
  dominant-baseline: central;
  text-anchor: middle;
}</style></svg>